<svg width="366" height="366" viewBox="0 0 366 366" fill="none" xmlns="http://www.w3.org/2000/svg">
<path d="M200.281 163.656C200.903 163.912 200.903 163.912 201.538 164.173C208.581 167.395 213.37 173.076 216.305 180.151C218.739 187.59 217.868 194.915 214.42 201.831C211.007 208.256 205.688 212.799 198.808 215.174C191.225 217.309 183.774 216.691 176.716 213.142C175.23 212.283 173.845 211.345 172.474 210.314C172.185 210.102 171.895 209.89 171.596 209.672C169.161 207.755 167.507 205.388 165.876 202.773C165.539 202.236 165.539 202.236 165.195 201.687C161.83 195.703 161.492 188.472 163.003 181.908C165.181 174.513 169.869 168.832 176.418 164.866C183.81 160.886 192.538 160.461 200.281 163.656Z" fill="#2BBF77"/>
<path d="M3.38942 0.027565C3.92374 0.0263361 4.45807 0.0251071 5.00859 0.0238409C5.90108 0.0254178 5.90108 0.0254178 6.8116 0.0270266C7.44505 0.0264834 8.0785 0.0257345 8.71195 0.0247966C10.4644 0.0228142 12.2169 0.0238057 13.9693 0.0252605C15.8624 0.0263284 17.7554 0.0247024 19.6484 0.0234201C23.3843 0.021334 27.1201 0.0218285 30.8559 0.0231699C33.9275 0.0242119 36.9992 0.0242387 40.0708 0.0235693C40.73 0.0234263 40.73 0.0234263 41.4025 0.0232805C42.2969 0.0230823 43.1913 0.0228822 44.0857 0.0226801C53.059 0.0207903 62.0322 0.0224352 71.0055 0.0253387C77.3503 0.0273788 83.6952 0.0285822 90.04 0.0291036C134.786 0.0328984 179.532 0.0474778 224.277 0.32252C224.732 0.325316 225.187 0.328112 225.656 0.330993C236.37 0.397185 247.084 0.471039 257.798 0.558168C257.809 6.93707 257.817 13.316 257.822 19.6949C257.825 22.6571 257.828 25.6192 257.834 28.5814C257.839 31.4417 257.841 34.3019 257.843 37.1622C257.844 38.2518 257.845 39.3414 257.848 40.431C257.851 41.9606 257.852 43.4902 257.851 45.0199C257.853 45.4674 257.855 45.9148 257.857 46.3759C257.856 46.7981 257.855 47.2203 257.855 47.6553C257.855 48.0163 257.856 48.3773 257.856 48.7493C257.773 50.6013 257.531 52.4432 257.327 54.2857C275.368 54.2857 293.409 54.2857 311.997 54.2857C311.997 72.0158 311.997 89.7459 311.997 108.013C314.33 107.858 316.663 107.702 319.066 107.542C322.483 107.542 322.483 107.542 323.963 107.571C325.247 107.601 325.247 107.601 326.607 107.071C326.762 107.226 326.918 107.382 327.078 107.542C328.268 107.587 329.446 107.601 330.636 107.595C331.008 107.596 331.381 107.596 331.765 107.596C333.001 107.595 334.238 107.592 335.475 107.588C336.33 107.587 337.185 107.586 338.041 107.586C340.296 107.584 342.552 107.58 344.807 107.574C347.107 107.57 349.406 107.567 351.706 107.565C356.222 107.56 360.737 107.552 365.253 107.542C365.296 125.337 365.33 143.133 365.349 160.928C365.352 163.036 365.354 165.143 365.357 167.251C365.357 167.88 365.357 167.88 365.358 168.522C365.366 175.288 365.381 182.054 365.399 188.821C365.416 195.779 365.427 202.737 365.43 209.695C365.433 213.978 365.441 218.261 365.456 222.545C365.467 225.494 365.469 228.443 365.467 231.392C365.466 233.086 365.467 234.779 365.478 236.473C365.651 266.421 355.764 294.723 336.504 317.739C336.113 318.211 335.723 318.683 335.32 319.17C324.513 332.15 324.513 332.15 320.009 334.235C320.009 334.546 320.009 334.857 320.009 335.177C319.386 335.772 319.386 335.772 318.505 336.444C318.017 336.817 318.017 336.817 317.52 337.199C317.165 337.465 316.81 337.731 316.445 338.005C315.897 338.418 315.897 338.418 315.338 338.84C301.622 349.098 286.609 356.611 270.052 361.098C269.669 361.203 269.287 361.307 268.893 361.414C259.753 363.854 250.359 364.832 240.926 365.131C239.939 365.164 238.953 365.2 237.967 365.237C237.332 365.258 236.698 365.279 236.063 365.299C235.496 365.319 234.93 365.338 234.346 365.358C232.974 365.342 231.791 365.193 230.463 364.869C230.307 365.18 230.152 365.491 229.992 365.811C229.659 365.735 229.327 365.658 228.984 365.579C227.591 365.332 226.315 365.282 224.901 365.283C224.081 365.282 224.081 365.282 223.244 365.281C222.351 365.284 222.352 365.284 221.441 365.286C220.804 365.287 220.168 365.287 219.531 365.286C217.807 365.286 216.082 365.289 214.358 365.292C212.555 365.295 210.752 365.295 208.948 365.296C205.535 365.297 202.122 365.301 198.708 365.306C194.822 365.311 190.935 365.314 187.048 365.316C179.055 365.321 171.061 365.329 163.068 365.34C162.625 364.012 162.539 363.214 162.543 361.841C162.543 361.421 162.543 361.001 162.543 360.569C162.546 360.116 162.548 359.664 162.551 359.198C162.552 358.5 162.551 358.5 162.553 357.788C162.555 356.299 162.561 354.811 162.567 353.322C162.569 352.319 162.572 351.315 162.574 350.312C162.578 348.102 162.585 345.893 162.593 343.683C162.598 342.252 162.595 340.821 162.589 339.389C162.58 337.211 162.575 335.033 162.571 332.855C162.568 331.924 162.565 330.992 162.561 330.06C162.555 328.698 162.553 327.336 162.551 325.974C162.548 325.573 162.546 325.173 162.543 324.76C162.543 320.2 162.839 315.716 163.068 311.141C145.027 311.141 126.986 311.141 108.398 311.141C108.398 293.255 108.398 275.37 108.398 256.942C90.8922 257.116 90.8922 257.116 73.3867 257.295C70.0083 257.327 70.0083 257.327 68.429 257.341C67.321 257.352 66.2131 257.363 65.1052 257.376C63.4314 257.394 61.7576 257.409 60.0837 257.424C59.5865 257.43 59.0892 257.436 58.5769 257.442C58.1291 257.446 57.6813 257.449 57.2199 257.452C56.8276 257.456 56.4353 257.46 56.0311 257.464C55.1414 257.414 55.1414 257.414 54.6701 256.942C54.625 256.239 54.6127 255.533 54.6135 254.828C54.6125 254.143 54.6125 254.143 54.6115 253.444C54.614 252.686 54.614 252.686 54.6166 251.913C54.6166 251.385 54.6165 250.856 54.6164 250.311C54.6168 248.554 54.6204 246.797 54.6241 245.04C54.625 243.826 54.6257 242.611 54.6261 241.397C54.6278 238.521 54.6315 235.645 54.6362 232.769C54.642 229.175 54.6446 225.581 54.6471 221.986C54.6517 215.572 54.6612 209.158 54.6701 202.743C36.94 202.743 19.21 202.743 0.942589 202.743C0.942589 200.255 0.942589 197.767 0.942589 195.203C0.631534 195.047 0.32048 194.892 0 194.731C0.311054 194.731 0.622108 194.731 0.942589 194.731C0.827778 194.25 0.827778 194.25 0.710648 193.758C0.437145 192.178 0.412197 190.696 0.411986 189.091C0.411301 188.764 0.410616 188.438 0.40991 188.101C0.408187 187.005 0.409828 185.909 0.411448 184.813C0.410905 184.02 0.410156 183.227 0.40922 182.434C0.407248 180.253 0.408226 178.072 0.409684 175.892C0.410749 173.541 0.409106 171.19 0.407809 168.839C0.405711 164.233 0.406167 159.627 0.407532 155.021C0.408595 151.28 0.408741 147.538 0.408228 143.797C0.408155 143.265 0.408083 142.733 0.408009 142.185C0.407858 141.105 0.407705 140.024 0.407551 138.944C0.406206 128.808 0.407753 118.672 0.410284 108.536C0.412391 99.8299 0.412023 91.1236 0.409851 82.4172C0.407332 72.3154 0.406334 62.2136 0.407783 52.1117C0.407933 51.0358 0.408082 49.9598 0.408228 48.8839C0.4083 48.3544 0.408373 47.825 0.408448 47.2795C0.408856 43.5395 0.408166 39.7996 0.407059 36.0597C0.405741 31.5065 0.406087 26.9534 0.408605 22.4002C0.409848 20.075 0.410321 17.7498 0.408771 15.4245C0.407375 13.2996 0.408123 11.1747 0.410645 9.04974C0.411176 8.27753 0.410896 7.50532 0.409761 6.73311C0.408346 5.69048 0.40978 4.64788 0.411986 3.60525C0.412063 3.02401 0.412139 2.44278 0.412218 1.84392C0.513924 -0.369643 1.40471 0.0278919 3.38942 0.027565ZM27.8064 27.8932C27.8064 76.4177 27.8064 124.942 27.8064 174.937C36.3027 177.769 45.7142 175.408 54.6701 175.408C54.6701 135.438 54.6701 95.4674 54.6701 54.2857C112.526 54.2857 170.382 54.2857 229.992 54.2857C229.992 48.8423 229.992 43.3988 229.992 37.7904C229.836 37.7904 229.681 37.7904 229.52 37.7904C229.365 34.5243 229.209 31.2583 229.049 27.8932C162.639 27.8932 96.2289 27.8932 27.8064 27.8932ZM229.52 27.8932C229.992 29.3071 229.992 29.3071 229.992 29.3071L229.52 27.8932ZM229.52 30.2497C229.52 31.1829 229.52 32.116 229.52 33.0775C229.676 33.0775 229.831 33.0775 229.992 33.0775C229.992 32.1443 229.992 31.2111 229.992 30.2497C229.836 30.2497 229.681 30.2497 229.52 30.2497ZM229.52 33.5488C229.52 34.793 229.52 36.0372 229.52 37.3191C229.676 37.3191 229.831 37.3191 229.992 37.3191C229.992 36.0749 229.992 34.8307 229.992 33.5488C229.836 33.5488 229.681 33.5488 229.52 33.5488ZM82.4765 81.6208C82.4765 130.456 82.4765 179.292 82.4765 229.607C91.0305 229.607 99.5845 229.607 108.398 229.607C108.398 189.481 108.398 149.355 108.398 108.013C119.592 108.019 130.786 108.024 142.32 108.03C149.395 108.032 156.47 108.035 163.545 108.036C167.26 108.037 170.975 108.038 174.691 108.039C175.156 108.039 175.622 108.039 176.102 108.04C183.623 108.042 191.145 108.045 198.666 108.05C206.383 108.054 214.1 108.057 221.817 108.058C226.58 108.058 231.343 108.06 236.106 108.064C239.371 108.067 242.635 108.067 245.9 108.067C247.785 108.066 249.669 108.067 251.554 108.069C253.279 108.072 255.004 108.072 256.729 108.07C257.649 108.07 258.569 108.072 259.489 108.074C260.31 108.073 260.31 108.073 261.148 108.071C261.855 108.072 261.855 108.072 262.576 108.072C263.957 108.039 263.957 108.039 265.428 107.761C266.952 107.509 268.064 107.74 269.58 108.013C270.877 108.071 272.171 108.058 273.469 108.043C273.808 108.041 274.147 108.038 274.496 108.036C275.371 108.031 276.246 108.022 277.121 108.013C277.907 108.013 278.693 108.021 279.479 108.03C280.31 108.036 280.31 108.036 281.156 108.043C281.711 108.048 282.266 108.054 282.837 108.059C284.142 108.169 284.142 108.169 284.662 107.542C284.713 106.766 284.732 105.988 284.738 105.21C284.744 104.465 284.744 104.465 284.751 103.704C284.753 103.163 284.755 102.622 284.757 102.065C284.76 101.513 284.763 100.962 284.766 100.394C284.77 99.2246 284.773 98.0554 284.775 96.8862C284.78 95.0915 284.794 93.297 284.809 91.5023C284.812 90.3692 284.815 89.2361 284.816 88.1029C284.825 87.2929 284.825 87.2929 284.834 86.4665C284.832 85.7187 284.832 85.7187 284.83 84.9559C284.831 84.5156 284.833 84.0754 284.835 83.6218C284.778 83.2725 284.721 82.9233 284.662 82.5634C282.909 81.3951 282.032 81.5036 279.938 81.5048C279.598 81.5037 279.257 81.5026 278.906 81.5015C277.756 81.499 276.606 81.5033 275.456 81.5074C274.626 81.507 273.797 81.5062 272.968 81.505C270.682 81.5029 268.396 81.5067 266.11 81.5114C263.647 81.5154 261.185 81.5141 258.722 81.5134C254.454 81.5129 250.185 81.5158 245.916 81.5211C239.744 81.5288 233.573 81.5312 227.401 81.5324C217.388 81.5345 207.375 81.5408 197.362 81.5497C187.634 81.5583 177.906 81.565 168.178 81.569C167.269 81.5694 167.269 81.5694 166.343 81.5698C161.608 81.5717 156.873 81.5736 152.139 81.5754C128.918 81.5843 105.697 81.6032 82.4765 81.6208ZM135.733 135.348C135.733 184.184 135.733 233.019 135.733 283.335C139.22 283.652 142.566 283.873 146.048 283.86C146.539 283.86 147.03 283.86 147.536 283.86C149.107 283.859 150.678 283.856 152.248 283.852C153.226 283.851 154.203 283.851 155.18 283.851C158.782 283.848 162.383 283.842 165.984 283.836C174.042 283.826 182.1 283.816 190.403 283.806C190.558 301.381 190.714 318.955 190.874 337.062C192.309 337.421 193.238 337.593 194.66 337.597C195.034 337.599 195.409 337.601 195.794 337.603C196.201 337.602 196.607 337.602 197.026 337.602C197.458 337.604 197.89 337.605 198.335 337.607C199.767 337.611 201.2 337.612 202.633 337.613C203.637 337.614 204.642 337.616 205.646 337.618C207.76 337.62 209.874 337.621 211.988 337.621C214.662 337.621 217.336 337.627 220.01 337.635C222.091 337.641 224.173 337.642 226.254 337.641C227.238 337.642 228.221 337.644 229.204 337.648C246.223 337.706 262.505 335.824 278.064 328.579C278.557 328.351 278.557 328.351 279.061 328.119C288.669 323.637 297.436 317.663 305.141 310.384C306.116 309.467 307.104 308.602 308.138 307.754C309.941 306.224 311.422 304.464 312.939 302.658C313.288 302.262 313.637 301.866 313.996 301.457C331.051 281.733 338.218 256.962 338.079 231.227C338.078 230.172 338.078 229.116 338.079 228.06C338.08 225.234 338.071 222.408 338.061 219.582C338.052 216.614 338.052 213.646 338.05 210.678C338.046 205.709 338.037 200.739 338.025 195.77C338.012 190.659 338.002 185.547 337.996 180.435C337.995 180.119 337.995 179.802 337.995 179.476C337.993 177.887 337.991 176.299 337.989 174.71C337.974 161.589 337.949 148.469 337.918 135.348C323.143 135.348 308.368 135.348 293.145 135.348C293.145 135.504 293.145 135.659 293.145 135.82C294.078 136.053 294.078 136.053 295.03 136.291C294.253 136.291 293.475 136.291 292.674 136.291C292.674 135.98 292.674 135.669 292.674 135.348C292.198 135.348 291.722 135.348 291.232 135.348C239.399 135.348 187.566 135.348 135.733 135.348Z" fill="#2BBF77"/>
</svg>
